Coordinates
version=1
nRows=16
nColumns=36
inDegrees=yes

Units are S.I. units (second, meters, Newtons, ...)
If the header above contains a line with 'inDegrees', this indicates whether rotational values are in degrees (yes) or radians (no).

endheader
time	pelvis_tilt	pelvis_list	pelvis_rotation	pelvis_tx	pelvis_ty	pelvis_tz	hip_flexion_r	hip_adduction_r	hip_rotation_r	knee_angle_r	knee_angle_r_beta	ankle_angle_r	subtalar_angle_r	mtp_angle_r	hip_flexion_l	hip_adduction_l	hip_rotation_l	knee_angle_l	knee_angle_l_beta	ankle_angle_l	subtalar_angle_l	mtp_angle_l	lumbar_extension	lumbar_bending	lumbar_rotation	arm_flex_r	arm_add_r	arm_rot_r	elbow_flex_r	pro_sup_r	arm_flex_l	arm_add_l	arm_rot_l	elbow_flex_l	pro_sup_l
      3.45000000	    -35.80148940	     -2.68134398	      3.77093620	      0.55861978	      0.52210255	     -0.14607588	    117.59471543	    -10.35056478	      1.19008811	    107.95063847	      1.88409407	     26.31568750	     -8.85938227	     -7.49999987	    116.98300174	     -9.99217489	      3.93409704	    106.49576711	      1.85870178	     24.78195184	    -11.96318388	     -7.49999987	    -28.01547317	     -0.87117697	      3.97249798	     81.87545272	    -29.70124436	     32.06557293	     92.12028413	     85.70707426	     89.76765237	    -19.30370911	     45.63509432	     90.47041911	     90.41085730
      3.46666670	    -36.13330879	     -3.00655609	      4.15337311	      0.56176695	      0.52958492	     -0.14699353	    118.14195861	    -10.73531155	      1.17478200	    107.77714333	      1.88106601	     25.55535655	     -8.55200879	     -7.49999987	    117.51070747	     -9.29122894	      4.09571402	    106.18123551	      1.85321216	     24.29364416	    -11.78447452	     -7.49999987	    -28.39249082	     -0.52058762	      3.89851046	     82.84556566	    -29.11155341	     33.00661200	     90.72971198	     83.67584784	     90.91441510	    -18.47261481	     46.85662836	     89.21864976	     88.25477410
      3.48333330	    -36.59858433	     -2.97344480	      4.44716219	      0.57511253	      0.54220751	     -0.15179532	    118.22206787	    -10.85828679	      1.50682612	    107.15986011	      1.87029238	     25.14734618	     -8.14257081	     -7.49999987	    117.33235465	     -8.77440833	      3.84853513	    105.39015087	      1.83940513	     24.33598148	    -11.40995383	     -7.49999987	    -28.73555326	     -0.54271336	      3.79214859	     83.56970691	    -29.04811007	     33.62962677	     90.41062488	     82.96112172	     91.50622737	    -17.61417524	     47.76144137	     88.48242734	     87.54325587
      3.50000000	    -37.23700259	     -3.19013158	      4.64142623	      0.58159604	      0.54838900	     -0.14961804	    117.92090551	    -10.84352788	      1.61323826	    106.21680624	      1.85383299	     25.06480043	     -7.91674191	     -7.49999987	    116.99766458	     -8.22951291	      3.89048482	    104.41692701	      1.82241917	     24.56476850	    -11.29795923	     -7.49999987	    -28.89269261	     -0.29986305	      3.78817499	     85.16653788	    -28.86180443	     33.01691588	     90.26756065	     82.89712867	     92.11273291	    -16.67964234	     47.84504317	     88.43797859	     87.57538855
      3.51666670	    -37.62934814	     -3.41496144	      4.91081612	      0.57501093	      0.54880240	     -0.14725132	    117.37582910	    -10.86902822	      1.71759144	    105.25023082	      1.83696307	     24.90348127	     -7.65926218	     -7.49999987	    116.43269448	     -7.65577394	      3.90089518	    103.43439570	      1.80527076	     24.62102095	    -11.51299952	     -7.49999987	    -28.55587010	     -0.44820653	      4.49181944	     86.80150911	    -30.07904611	     32.44320886	     90.61395795	     82.95258906	     94.67268807	    -14.42278162	     48.04089633	     87.53068152	     91.32156852
      3.53333330	    -37.94997248	     -3.51413634	      5.19924752	      0.58214970	      0.55944133	     -0.14620712	    116.38520079	    -10.83372134	      1.73784479	    103.94836193	      1.81424117	     24.89421257	     -7.58790527	     -7.49999987	    115.49064965	     -7.20484745	      3.81379658	    102.21444619	      1.78397863	     24.93744581	    -11.52944292	     -7.49999987	    -28.30349923	     -0.25146856	      4.20452820	     87.52900464	    -29.86626603	     32.60006557	     90.66726158	     82.71820020	     95.47813904	    -13.73077420	     48.12117517	     87.83257353	     90.99028711
      3.55000000	    -38.79722445	     -3.52768686	      5.64566319	      0.58517864	      0.56825710	     -0.15050724	    115.75905733	    -10.98482695	      1.90272579	    102.40322400	      1.78727342	     24.52809563	     -7.62822011	     -7.49999987	    114.79194533	     -6.51824774	      3.54443061	    100.68884562	      1.75735188	     24.61761508	    -12.02615055	     -7.49999987	    -27.57209517	      0.15216252	      4.01749823	     87.90780648	    -31.26277400	     33.77836576	     92.81225218	     82.51333914	     95.76418551	    -13.30574983	     47.85715591	     90.32810126	     91.63070010
      3.56666670	    -39.43282457	     -3.47755680	      6.01273375	      0.58989978	      0.58374720	     -0.14738095	    114.62181184	    -11.00466762	      2.05737264	    100.58467424	      1.75553374	     24.33398422	     -7.58474742	     -7.49999987	    113.61691392	     -5.92314918	      3.29225684	     98.96435092	      1.72725377	     24.59956120	    -12.31839331	     -7.49999987	    -27.13648378	      0.32890722	      3.77171325	     88.14402356	    -30.99257562	     32.87857931	     93.11011831	     79.54955425	     95.72412684	    -13.90156930	     46.82128541	     91.58001053	     88.66005155
      3.58333330	    -39.92142003	     -3.53773455	      6.39254272	      0.60188174	      0.59558039	     -0.15144937	    113.06619939	    -11.14678584	      2.08097707	     98.64057190	      1.72160276	     24.40553339	     -7.44244584	     -7.49999987	    112.09199458	     -5.23264748	      3.16675952	     97.10923501	      1.69487589	     24.80112067	    -12.56785662	     -7.49999987	    -26.55436898	      0.58197365	      3.59774447	     86.59231932	    -30.80861871	     31.04133581	     96.05209722	     81.18124761	     94.22597484	    -13.34687703	     44.32187634	     93.05564996	     95.15707995
      3.60000000	    -40.17079988	     -3.58248746	      6.71980562	      0.59927393	      0.60229126	     -0.13864264	    111.41520082	    -11.08091297	      2.12153996	     96.78830047	      1.68927452	     24.35536155	     -7.21143028	     -7.49999987	    110.43184191	     -4.76137653	      3.14949109	     95.31883368	      1.66362749	     25.07932604	    -12.78855748	     -7.49999987	    -25.97600961	      0.49894207	      3.34603798	     87.35808461	    -29.51472495	     29.70348253	     98.64980566	     79.09091746	     95.03142831	    -15.17732319	     44.78688484	     94.94669876	     91.98016959
      3.61666670	    -40.19180774	     -3.62302243	      6.92770234	      0.61840817	      0.61634614	     -0.14320398	    109.23883927	    -10.92995813	      2.04934865	     94.77047098	      1.65405675	     24.51105221	     -7.11919625	     -7.49999987	    108.31316342	     -4.37577137	      3.29474735	     93.42867695	      1.63063803	     25.66850788	    -12.79241250	     -7.49999987	    -25.44905927	      0.47074957	      2.78185723	     85.75556238	    -29.13334683	     28.03322201	    103.19199463	     78.23260185	     94.07268739	    -16.38498481	     44.12831323	     98.27366580	     91.01916757
      3.63333330	    -40.05282613	     -3.52543578	      7.03896354	      0.63441945	      0.63503696	     -0.14741268	    106.53134512	    -10.72651712	      1.98577784	     92.47740174	      1.61403514	     24.75690628	     -7.21490442	     -7.49999987	    105.57536867	     -4.07995088	      3.34671632	     91.24834206	      1.59258401	     26.40994983	    -12.65368711	     -7.49999987	    -25.01663136	      0.34551294	      2.31477841	     82.97723027	    -29.66547622	     25.87046191	    105.79407164	     77.35446425	     92.37026286	    -17.08582533	     43.35673168	    100.21859436	     90.37153270
      3.65000000	    -39.53928023	     -3.17962542	      6.90103671	      0.66304427	      0.64851370	     -0.16879059	    103.19805064	    -10.45309384	      2.12896452	     90.12680522	      1.57300950	     25.35490841	     -7.43645006	     -7.49999987	    102.04011307	     -3.66370678	      3.36365105	     89.10012638	      1.55509057	     27.36725217	    -12.58954090	     -7.49999987	    -24.40457281	      0.06484994	      3.04949918	     77.51177366	    -33.02664848	     21.03754857	    111.18454380	     79.43921433	     87.90090036	    -13.94695966	     40.58609871	    101.65566862	     99.30767326
      3.66666670	    -38.51122913	     -2.58963002	      6.71372077	      0.67970353	      0.66208500	     -0.17419705	     99.13964782	    -10.17982501	      2.56060321	     87.64674889	      1.52972435	     26.15346100	     -7.64585981	     -7.49999987	     97.62153568	     -3.05420786	      3.30411826	     86.78946572	      1.51476193	     28.53698245	    -12.56904177	     -7.49999987	    -23.69407821	     -0.06689666	      2.40366943	     72.66854932	    -33.15998901	     18.97686085	    113.69621904	     79.18953648	     82.97591766	    -14.43040065	     38.62201443	    104.24812410	     98.39634938
      3.68333330	    -37.32969725	     -2.06187172	      6.54170154	      0.68527278	      0.67577237	     -0.16565034	     95.05054727	     -9.73943330	      3.06984180	     85.18698187	      1.48679331	     26.80247770	     -8.07326999	     -7.49999987	     93.28066013	     -2.59685919	      3.28911298	     84.50641203	      1.47491513	     29.37250879	    -12.76012026	     -7.49999987	    -22.92685861	     -0.45905787	      2.01450062	     69.68348633	    -32.51525061	     18.06671442	    114.52396323	     77.77025167	     79.52484278	    -16.39800911	     37.66029445	    105.16822557	     95.88657378
      3.70000000	    -35.97380663	     -1.61796297	      6.21410171	      0.69230974	      0.67763254	     -0.15915327	     91.48118296	     -9.07011049	      3.47708437	     83.49581487	      1.45727688	     27.50009426	     -8.62511460	     -7.49999987	     89.55743031	     -2.56626677	      3.27641016	     82.98024076	      1.44827842	     29.92832027	    -13.17624187	     -7.49999987	    -21.68066600	     -0.95754865	      1.03826015	     68.57021998	    -31.16654802	     16.86866708	    116.57406250	     77.66085648	     77.31497987	    -19.13359633	     35.32425545	    107.99172352	     94.18334376
